<?xml version="1.0" encoding="utf-8"?>
<!-- Generator: Adobe Illustrator 27.6.1, SVG Export Plug-In . SVG Version: 6.00 Build 0)  -->
<svg version="1.1" id="Layer_1" xmlns="http://www.w3.org/2000/svg" xmlns:xlink="http://www.w3.org/1999/xlink" x="0px" y="0px"
	 viewBox="0 0 593.6 141.3" style="enable-background:new 0 0 593.6 141.3;" xml:space="preserve">
<style type="text/css">
	.st0{fill:#02163F;}
	.st1{fill:#7BD389;}
	.st2{fill:#4464AD;}
</style>
<g>
	<g>
		<g>
			<path class="st0" d="M199.1,114.1V87.5h2.8v26.6H199.1z M200.9,90.1v-2.6h15.4v2.6H200.9z M200.9,101.7v-2.5h14.4v2.5H200.9z
				 M200.9,114.1v-2.6h15.6v2.6H200.9z"/>
			<path class="st0" d="M219.3,114.1l7.6-10l1.5,2l-5.9,7.9L219.3,114.1L219.3,114.1L219.3,114.1z M233.5,114.1l-6.1-8.3l-0.6-0.5
				l-7.3-9.4h3.4l5.6,7.4l0.5,0.5l7.7,10.3H233.5z M229.3,105.3l-1.5-2l5.6-7.4h3.2L229.3,105.3z"/>
			<path class="st0" d="M240.4,121.7V95.9h2.7v4.6l-0.5,4.4l0.5,4.4v12.3L240.4,121.7L240.4,121.7z M249.8,114.5
				c-1.4,0-2.6-0.3-3.7-0.9c-1.1-0.6-2-1.3-2.7-2.3s-1.1-2.1-1.3-3.4v-5.7c0.1-1.3,0.6-2.5,1.3-3.5s1.6-1.8,2.8-2.3s2.4-0.8,3.7-0.8
				c1.7,0,3.2,0.4,4.5,1.2c1.3,0.8,2.4,2,3.2,3.4s1.2,3,1.2,4.8s-0.4,3.4-1.2,4.8s-1.8,2.5-3.2,3.4
				C253,114.1,251.5,114.5,249.8,114.5z M249.3,111.9c1.3,0,2.4-0.3,3.4-0.9s1.7-1.4,2.3-2.4c0.5-1,0.8-2.2,0.8-3.6
				s-0.3-2.6-0.8-3.6s-1.3-1.8-2.3-2.4s-2.1-0.9-3.4-0.9s-2.4,0.3-3.3,0.9s-1.7,1.4-2.3,2.4s-0.8,2.2-0.8,3.6c0,1.3,0.3,2.5,0.8,3.6
				s1.3,1.9,2.2,2.4C246.9,111.6,248.1,111.9,249.3,111.9z"/>
			<path class="st0" d="M263,114.1V86.8h2.7v27.3C265.7,114.1,263,114.1,263,114.1z"/>
			<path class="st0" d="M279.4,114.5c-1.8,0-3.3-0.4-4.8-1.3s-2.6-2-3.4-3.4s-1.2-3.1-1.2-4.8c0-1.8,0.4-3.3,1.2-4.8
				c0.8-1.4,2-2.5,3.4-3.4s3-1.2,4.8-1.2s3.4,0.4,4.8,1.2c1.4,0.8,2.5,1.9,3.4,3.4s1.2,3,1.2,4.8s-0.4,3.4-1.2,4.8
				c-0.8,1.4-2,2.6-3.4,3.4S281.2,114.5,279.4,114.5z M279.4,111.8c1.3,0,2.4-0.3,3.4-0.9s1.8-1.4,2.4-2.5s0.9-2.2,0.9-3.6
				c0-1.3-0.3-2.5-0.9-3.5s-1.4-1.8-2.4-2.4s-2.1-0.9-3.4-0.9s-2.4,0.3-3.4,0.9s-1.8,1.4-2.4,2.4s-0.9,2.2-0.9,3.5s0.3,2.5,0.9,3.6
				c0.6,1,1.4,1.9,2.4,2.4C277,111.6,278.1,111.8,279.4,111.8z"/>
			<path class="st0" d="M293.1,114.1V96h2.7v18.1H293.1z M295.8,103.5l-1.1-0.5c0-2.3,0.6-4.1,1.7-5.4s2.7-2,4.6-2
				c0.9,0,1.7,0.2,2.5,0.5s1.4,0.8,2.1,1.5l-1.8,1.9c-0.4-0.5-0.9-0.8-1.5-1c-0.5-0.2-1.1-0.3-1.8-0.3c-1.4,0-2.5,0.5-3.4,1.4
				C296.2,100.4,295.8,101.7,295.8,103.5z"/>
			<path class="st0" d="M316.1,114.5c-1.8,0-3.5-0.4-4.9-1.2s-2.6-2-3.4-3.4s-1.2-3.1-1.2-4.9s0.4-3.4,1.2-4.8
				c0.8-1.4,1.9-2.6,3.4-3.4c1.4-0.8,3-1.2,4.8-1.2c1.6,0,3.1,0.4,4.4,1.1c1.3,0.8,2.3,1.8,3,3.1s1.1,2.8,1.1,4.6c0,0.2,0,0.4,0,0.7
				s-0.1,0.6-0.1,0.9h-15.7v-2.3h14.2l-1,0.8c0-1.3-0.2-2.5-0.7-3.4c-0.5-1-1.2-1.7-2-2.2c-0.9-0.5-2-0.8-3.2-0.8
				c-1.3,0-2.5,0.3-3.4,0.8s-1.7,1.4-2.3,2.4c-0.5,1-0.8,2.2-0.8,3.6s0.3,2.6,0.9,3.7s1.4,1.9,2.4,2.5s2.2,0.9,3.6,0.9
				c1.1,0,2.1-0.2,3-0.6s1.7-1,2.4-1.8l1.7,1.8c-0.9,1-1.9,1.8-3.1,2.3S317.6,114.5,316.1,114.5z"/>
			<path class="st0" d="M335.1,98.4V96H347v2.4H335.1z M339.7,114.1V88.3h2.7v25.8C342.4,114.1,339.7,114.1,339.7,114.1z"/>
			<path class="st0" d="M350.6,114.1V86.8h2.7v27.3C353.3,114.1,350.6,114.1,350.6,114.1z M363.8,114.1v-10.7c0-1.6-0.5-2.9-1.4-3.9
				s-2.2-1.5-3.7-1.5c-1.1,0-2,0.2-2.8,0.7s-1.4,1.1-1.9,1.9s-0.7,1.7-0.7,2.7l-1.2-0.7c0-1.4,0.3-2.6,1-3.7
				c0.6-1.1,1.5-1.9,2.6-2.6c1.1-0.6,2.4-0.9,3.8-0.9s2.6,0.3,3.7,0.9s1.9,1.5,2.5,2.6s0.9,2.4,0.9,3.9v11.1h-2.8V114.1z"/>
			<path class="st0" d="M380,114.5c-1.8,0-3.5-0.4-4.9-1.2s-2.6-2-3.4-3.4s-1.2-3.1-1.2-4.9s0.4-3.4,1.2-4.8
				c0.8-1.4,1.9-2.6,3.4-3.4c1.4-0.8,3-1.2,4.8-1.2c1.6,0,3.1,0.4,4.4,1.1c1.3,0.8,2.3,1.8,3,3.1s1.1,2.8,1.1,4.6c0,0.2,0,0.4,0,0.7
				s-0.1,0.6-0.1,0.9h-15.7v-2.3h14.2l-1,0.8c0-1.3-0.2-2.5-0.7-3.4c-0.5-1-1.2-1.7-2-2.2c-0.9-0.5-2-0.8-3.2-0.8
				c-1.3,0-2.5,0.3-3.4,0.8s-1.7,1.4-2.3,2.4c-0.5,1-0.8,2.2-0.8,3.6s0.3,2.6,0.9,3.7s1.4,1.9,2.4,2.5s2.2,0.9,3.6,0.9
				c1.1,0,2.1-0.2,3-0.6s1.7-1,2.4-1.8l1.7,1.8c-0.9,1-1.9,1.8-3.1,2.3S381.4,114.5,380,114.5z"/>
			<path class="st0" d="M407.9,114.5c-1.5,0-2.8-0.3-3.9-1c-1.2-0.7-2.1-1.6-2.7-2.8c-0.7-1.2-1-2.6-1-4.2V96h2.7v10.4
				c0,1.1,0.2,2.1,0.6,2.9s1,1.5,1.7,1.9c0.8,0.5,1.6,0.7,2.6,0.7c1.5,0,2.7-0.5,3.6-1.5s1.3-2.3,1.3-4V96h2.7v10.5
				c0,1.6-0.3,3-1,4.2c-0.6,1.2-1.5,2.1-2.7,2.8C410.7,114.1,409.3,114.5,407.9,114.5z"/>
			<path class="st0" d="M420.6,114.1V96h2.7v18.1H420.6z M433.8,114.1v-10.7c0-1.6-0.5-2.9-1.4-3.9s-2.2-1.5-3.7-1.5
				c-1.1,0-2,0.2-2.8,0.7s-1.4,1.1-1.9,1.9s-0.7,1.7-0.7,2.7l-1.2-0.7c0-1.4,0.3-2.6,1-3.7c0.6-1.1,1.5-1.9,2.6-2.6
				c1.1-0.6,2.4-0.9,3.8-0.9s2.6,0.3,3.7,1s1.9,1.6,2.5,2.7s0.9,2.4,0.9,3.7v11.1L433.8,114.1L433.8,114.1z"/>
			<path class="st0" d="M449.9,114.5c-1.8,0-3.5-0.4-4.9-1.2s-2.6-2-3.4-3.4s-1.2-3.1-1.2-4.9s0.4-3.4,1.2-4.8
				c0.8-1.4,1.9-2.6,3.4-3.4c1.4-0.8,3-1.2,4.8-1.2c1.6,0,3.1,0.4,4.4,1.1c1.3,0.8,2.3,1.8,3,3.1s1.1,2.8,1.1,4.6c0,0.2,0,0.4,0,0.7
				s-0.1,0.6-0.1,0.9h-15.9v-2.3h14.2l-1,0.8c0-1.3-0.2-2.5-0.7-3.4c-0.5-1-1.2-1.7-2-2.2c-0.9-0.5-2-0.8-3.2-0.8
				c-1.3,0-2.5,0.3-3.4,0.8s-1.7,1.4-2.3,2.4c-0.5,1-0.8,2.2-0.8,3.6s0.3,2.6,0.9,3.7s1.4,1.9,2.4,2.5s2.2,0.9,3.6,0.9
				c1.1,0,2.1-0.2,3-0.6s1.7-1,2.4-1.8l1.7,1.8c-0.9,1-1.9,1.8-3.1,2.3S451.4,114.5,449.9,114.5z"/>
			<path class="st0" d="M459.8,114.1l7.6-10l1.5,2L463,114L459.8,114.1L459.8,114.1z M474.1,114.1l-6.1-8.3l-0.6-0.5l-7.3-9.4h3.4
				l5.6,7.4l0.5,0.5l7.7,10.3H474.1z M469.8,105.3l-1.5-2l5.6-7.4h3.2L469.8,105.3z"/>
			<path class="st0" d="M481,121.7V95.9h2.7v4.6l-0.5,4.4l0.5,4.4v12.3L481,121.7L481,121.7z M490.3,114.5c-1.4,0-2.6-0.3-3.7-0.9
				s-2-1.3-2.7-2.3s-1.1-2.1-1.3-3.4v-5.7c0.2-1.3,0.6-2.5,1.3-3.5s1.6-1.8,2.8-2.3s2.3-0.8,3.7-0.8c1.7,0,3.2,0.4,4.5,1.2
				c1.3,0.8,2.4,2,3.2,3.4s1.2,3,1.2,4.8s-0.4,3.4-1.2,4.8s-1.8,2.5-3.2,3.4C493.5,114.1,492,114.5,490.3,114.5z M489.9,111.9
				c1.3,0,2.4-0.3,3.4-0.9s1.7-1.4,2.3-2.4c0.5-1,0.8-2.2,0.8-3.6s-0.3-2.6-0.8-3.6s-1.3-1.8-2.3-2.4s-2.1-0.9-3.4-0.9
				s-2.4,0.3-3.3,0.9c-1,0.6-1.7,1.4-2.3,2.4c-0.5,1-0.8,2.2-0.8,3.6c0,1.3,0.3,2.5,0.8,3.6s1.3,1.9,2.2,2.4
				C487.5,111.6,488.6,111.9,489.9,111.9z"/>
			<path class="st0" d="M503.5,114.1V86.8h2.7v27.3C506.2,114.1,503.5,114.1,503.5,114.1z"/>
			<path class="st0" d="M520,114.5c-1.8,0-3.3-0.4-4.8-1.3s-2.6-2-3.4-3.4c-0.8-1.4-1.2-3.1-1.2-4.8c0-1.8,0.4-3.3,1.2-4.8
				c0.8-1.4,2-2.5,3.4-3.4c1.4-0.8,3-1.2,4.8-1.2s3.4,0.4,4.8,1.2c1.4,0.8,2.5,1.9,3.4,3.4s1.2,3,1.2,4.8s-0.4,3.4-1.2,4.8
				s-2,2.6-3.4,3.4C523.3,114,521.7,114.5,520,114.5z M520,111.8c1.3,0,2.4-0.3,3.4-0.9s1.8-1.4,2.4-2.5c0.6-1.1,0.9-2.2,0.9-3.6
				c0-1.3-0.3-2.5-0.9-3.5c-0.6-1-1.4-1.8-2.4-2.4S521.3,98,520,98s-2.4,0.3-3.4,0.9s-1.8,1.4-2.4,2.4c-0.6,1-0.8,2.2-0.8,3.5
				s0.3,2.5,0.8,3.6c0.6,1,1.3,1.9,2.4,2.4C517.6,111.6,518.7,111.8,520,111.8z"/>
			<path class="st0" d="M533.7,114.1V96h2.7v18.1H533.7z M536.4,103.5l-1.1-0.5c0-2.3,0.6-4.1,1.7-5.4c1.1-1.3,2.7-2,4.6-2
				c0.9,0,1.7,0.2,2.5,0.5s1.4,0.8,2.1,1.5l-1.8,1.9c-0.4-0.5-0.9-0.8-1.5-1c-0.5-0.2-1.1-0.3-1.8-0.3c-1.4,0-2.5,0.5-3.4,1.4
				C536.8,100.4,536.4,101.7,536.4,103.5z"/>
			<path class="st0" d="M556.7,114.5c-1.8,0-3.5-0.4-4.9-1.2s-2.6-2-3.4-3.4c-0.8-1.4-1.2-3.1-1.2-4.9s0.4-3.4,1.2-4.8
				s1.9-2.6,3.4-3.4c1.4-0.8,3-1.2,4.8-1.2c1.7,0,3.1,0.4,4.4,1.1s2.3,1.8,3,3.1s1.1,2.8,1.1,4.6c0,0.2,0,0.4,0,0.7
				c0,0.3-0.1,0.6-0.2,0.9h-15.7v-2.3h14.1l-1,0.8c0-1.3-0.2-2.5-0.7-3.4s-1.2-1.7-2-2.2s-2-0.8-3.2-0.8c-1.3,0-2.5,0.3-3.4,0.8
				s-1.7,1.4-2.3,2.4c-0.5,1-0.8,2.2-0.8,3.6s0.3,2.6,0.9,3.7c0.6,1.1,1.4,1.9,2.4,2.5s2.2,0.9,3.6,0.9c1.1,0,2.1-0.2,3-0.6
				s1.7-1,2.4-1.8l1.7,1.8c-0.8,1-1.9,1.8-3.2,2.3S558.1,114.5,556.7,114.5z"/>
			<path class="st0" d="M576.8,114.5c-1.7,0-3.2-0.4-4.5-1.2s-2.4-1.9-3.2-3.4c-0.8-1.4-1.2-3-1.2-4.8s0.4-3.4,1.2-4.8
				s1.8-2.6,3.2-3.4c1.3-0.8,2.8-1.2,4.5-1.2c1.4,0,2.6,0.3,3.7,0.8s2,1.3,2.8,2.3c0.7,1,1.2,2.2,1.3,3.5v5.7
				c-0.2,1.3-0.6,2.5-1.3,3.4c-0.7,1-1.6,1.8-2.7,2.3S578.2,114.5,576.8,114.5z M577.3,111.9c1.3,0,2.4-0.3,3.3-0.9s1.7-1.4,2.2-2.4
				s0.8-2.2,0.8-3.6s-0.3-2.6-0.8-3.6s-1.3-1.8-2.3-2.4s-2.1-0.9-3.3-0.9s-2.4,0.3-3.4,0.9s-1.7,1.4-2.3,2.4s-0.8,2.2-0.8,3.6
				s0.3,2.5,0.8,3.6s1.3,1.9,2.3,2.4C574.9,111.6,576,111.9,577.3,111.9z M586.2,114.1h-2.7v-4.9l0.5-4.5l-0.5-4.4V86.7h2.7V114.1z"
				/>
		</g>
		<g>
			<path class="st1" d="M198.2,31v-8.5h37.4v8.6L198.2,31L198.2,31z M211.9,66.5V23h9.8v43.5H211.9z"/>
			<path class="st1" d="M251.2,66.5V22.4h9.8v44.1H251.2L251.2,66.5z M258.7,48.3v-7.2h9.3c2,0,3.5-0.5,4.5-1.5s1.6-2.3,1.6-4.1
				c0-1.6-0.5-2.9-1.6-3.9S270,30,268,30h-9.4v-7.6h10.5c2.9,0,5.5,0.5,7.7,1.7c2.2,1.1,3.9,2.6,5.2,4.6c1.2,2,1.9,4.2,1.9,6.8
				s-0.6,4.8-1.9,6.8c-1.2,1.9-3,3.4-5.2,4.5s-4.9,1.6-7.9,1.6L258.7,48.3L258.7,48.3z M275.2,66.5l-13.7-19l9-2.4l16.4,21.4H275.2
				L275.2,66.5z"/>
			<path class="st1" d="M301.3,66.5V22.4h9.8v44.1H301.3L301.3,66.5z M308.8,30.8v-8.4h23.9v8.4H308.8z M308.8,48.1v-8.2h22v8.2
				H308.8z M308.8,66.5V58H333v8.5H308.8z"/>
			<path class="st1" d="M349.9,66.5V22.4h9.8v44.1H349.9L349.9,66.5z M376.5,66.5l-17.9-23l17.3-21.1H388l-19.5,22.9v-4l20.1,25.2
				H376.5z"/>
			<path class="st2" d="M437.7,67.2c-3.2,0-5.9-0.6-8.3-1.7s-4.2-2.7-5.5-4.6c-1.3-2-2-4.2-2-6.7c0-2.1,0.4-4,1.2-5.6s2-3.1,3.4-4.2
				s3.2-1.9,5.1-2.3l-0.2,2c-1.7-0.4-3.1-1.1-4.2-2.1s-2.1-2.3-2.7-3.7c-0.6-1.5-0.9-3-0.9-4.6c0-2.3,0.6-4.4,1.8-6.2
				c1.2-1.8,2.8-3.2,5-4.3c2.1-1,4.5-1.6,7.2-1.6c2.8,0,5.2,0.5,7.3,1.6c2.1,1,3.8,2.5,4.9,4.3c1.2,1.8,1.8,3.9,1.8,6.2
				c0,1.6-0.3,3.1-0.9,4.6s-1.5,2.7-2.6,3.7c-1.2,1-2.6,1.7-4.2,2.1l-0.2-2c2,0.4,3.7,1.2,5.2,2.3s2.6,2.5,3.4,4.2s1.2,3.5,1.2,5.6
				c0,2.5-0.6,4.7-1.9,6.7s-3.1,3.5-5.5,4.6C443.7,66.6,440.9,67.2,437.7,67.2z M437.7,58.8c1.2,0,2.4-0.3,3.3-0.8s1.7-1.2,2.3-2.2
				c0.6-0.9,0.8-1.9,0.8-3.1s-0.3-2.2-0.8-3.1c-0.6-0.9-1.3-1.6-2.3-2.1s-2.1-0.8-3.3-0.8s-2.4,0.3-3.3,0.8s-1.7,1.2-2.2,2.1
				s-0.8,1.9-0.8,3.1c0,1.1,0.3,2.2,0.8,3.1s1.3,1.6,2.2,2.2C435.3,58.5,436.4,58.8,437.7,58.8z M437.7,39.7c1.5,0,2.6-0.5,3.6-1.4
				s1.4-2.1,1.4-3.5c0-1.5-0.5-2.7-1.4-3.6s-2.1-1.4-3.6-1.4c-1.4,0-2.6,0.5-3.6,1.4s-1.4,2.1-1.4,3.6c0,1.4,0.5,2.6,1.4,3.6
				C435.1,39.2,436.3,39.7,437.7,39.7z"/>
			<path class="st2" d="M481.3,67.2c-3,0-5.9-0.5-8.5-1.6S468,63,466.2,61l6.4-6.3c0.8,1.2,2,2.1,3.5,2.8s3.2,1.1,5,1.1
				c1.6,0,3-0.3,4.1-0.8c1.2-0.6,2.1-1.4,2.8-2.4c0.7-1.1,1-2.3,1-3.7c0-1.5-0.3-2.7-1-3.8s-1.6-1.8-2.8-2.4c-1.2-0.6-2.5-0.8-4-0.8
				s-2.9,0.2-4.1,0.6s-2.4,1-3.4,1.8l0.8-6.2c1-0.8,1.9-1.4,2.8-1.8c0.9-0.5,1.8-0.8,2.9-1.1s2.3-0.4,3.7-0.4c3.2,0,6,0.7,8.2,2
				s3.9,3.1,5.1,5.3c1.1,2.2,1.7,4.6,1.7,7.3c0,2.9-0.7,5.5-2.2,7.8s-3.5,4.1-6,5.4C487.8,66.5,484.8,67.2,481.3,67.2z M473.5,47
				l-4.2-3.9l2.1-20.7h8.9L478,42.9L473.5,47z M472.6,30.7l-1.3-8.3h24.8v8.3H472.6z"/>
			<path class="st2" d="M528.1,67.2c-3.2,0-5.9-0.6-8.3-1.7c-2.3-1.1-4.2-2.7-5.5-4.6c-1.3-2-2-4.2-2-6.7c0-2.1,0.4-4,1.2-5.6
				s2-3.1,3.4-4.2c1.5-1.1,3.2-1.9,5.2-2.3l-0.2,2c-1.7-0.4-3.1-1.1-4.2-2.1s-2.1-2.3-2.7-3.7c-0.6-1.5-0.9-3-0.9-4.6
				c0-2.3,0.6-4.4,1.8-6.2s2.8-3.2,5-4.3c2.1-1,4.5-1.6,7.2-1.6c2.8,0,5.2,0.5,7.3,1.6c2.1,1,3.8,2.5,4.9,4.3
				c1.2,1.8,1.8,3.9,1.8,6.2c0,1.6-0.3,3.1-0.9,4.6c-0.6,1.5-1.5,2.7-2.7,3.7s-2.6,1.7-4.2,2.1l-0.2-2c2,0.4,3.7,1.2,5.2,2.3
				s2.6,2.5,3.4,4.2c0.8,1.7,1.2,3.5,1.2,5.6c0,2.5-0.7,4.7-1.9,6.7c-1.3,2-3.1,3.5-5.5,4.6C534.1,66.6,531.3,67.2,528.1,67.2z
				 M528.1,58.8c1.2,0,2.3-0.3,3.3-0.8s1.7-1.2,2.3-2.2c0.6-0.9,0.8-1.9,0.8-3.1s-0.3-2.2-0.8-3.1c-0.6-0.9-1.3-1.6-2.3-2.1
				s-2.1-0.8-3.3-0.8s-2.3,0.3-3.3,0.8s-1.7,1.2-2.2,2.1s-0.8,1.9-0.8,3.1c0,1.1,0.3,2.2,0.8,3.1s1.3,1.6,2.2,2.2
				C525.8,58.5,526.9,58.8,528.1,58.8z M528.1,39.7c1.5,0,2.7-0.5,3.6-1.4s1.4-2.1,1.4-3.5c0-1.5-0.5-2.7-1.4-3.6s-2.1-1.4-3.6-1.4
				c-1.4,0-2.6,0.5-3.6,1.4s-1.4,2.1-1.4,3.6c0,1.4,0.5,2.6,1.4,3.6C525.5,39.2,526.7,39.7,528.1,39.7z"/>
			<path class="st2" d="M573.8,67.2c-3.1,0-5.9-0.7-8.3-2.1c-2.5-1.4-4.4-3.2-5.9-5.5s-2.2-4.9-2.2-7.8c0-3.8,1.3-7.5,3.9-11.4
				l12.4-18h11l-13.8,19.2l-3.7,0.3c0.6-1,1.2-1.9,1.8-2.6s1.5-1.3,2.5-1.7s2.3-0.6,3.8-0.6c2.8,0,5.2,0.6,7.4,1.9
				c2.2,1.3,3.9,3,5.3,5.2c1.3,2.2,2,4.7,2,7.5c0,2.9-0.7,5.5-2.2,7.8s-3.4,4.2-5.9,5.6C579.6,66.5,576.8,67.2,573.8,67.2z
				 M573.8,58.6c1.3,0,2.5-0.3,3.5-0.9s1.8-1.5,2.4-2.6c0.6-1.1,0.9-2.3,0.9-3.6c0-1.4-0.3-2.6-0.9-3.7c-0.6-1.1-1.4-1.9-2.4-2.5
				s-2.2-0.9-3.5-0.9s-2.5,0.3-3.5,0.9s-1.8,1.4-2.4,2.5s-0.9,2.3-0.9,3.7c0,1.3,0.3,2.5,0.9,3.6s1.4,1.9,2.4,2.6
				C571.3,58.3,572.4,58.6,573.8,58.6z"/>
		</g>
	</g>
</g>
<path class="st2" d="M121.2,100l-36.9,37.4c-0.6,0.6-1.3,1.2-2,1.6c0,0-0.1,0.1-0.2,0.1c-4.3,2.9-10,2.9-14.4,0.1l0,0l0,0
	c-0.2-0.1-0.4-0.3-0.6-0.4c-0.5-0.4-1-0.8-1.4-1.2l-7.8-7.7l0.1-0.1l7.7-7.8l7.8,7.7c0.8,0.8,2.1,0.8,3,0l29.1-29.4L88.5,83.4
	l-5.9-5.8c-0.3-0.3-0.6-0.5-0.9-0.8c-4.4-3.5-10.9-3.2-15,0.9l-22.6,22.9l6.2,6.1l1.6,1.6l5.9,5.9l0,0l-7.7,7.8l-0.8-0.7l-5.5-5.3
	l0,0l-0.4-0.4l-1.6-1.6L1.4,75c-0.7-0.7-1.1-1.4-1.4-2.3c-0.5-1.7-0.1-3.6,1.2-5l11.2-11.6l7.5-7.8l0.1,0.1l7.9,7.6L13.4,71.1
	l22.5,21.7l0,0l22.8-23.1c0.6-0.6,1.3-1.2,2-1.8c2.4-1.9,5.1-3.2,7.9-4c7.5-2.1,15.8-0.2,21.8,5.6L121,99.8L121.2,100z"/>
<path class="st1" d="M123.4,36.8L123.4,36.8L123.4,36.8l-7.8,7.9l-1-1l-3.2-3.1l-3.7-3.6l-0.9-0.9L84.7,14.5
	c-4.4-4.3-11.6-4.3-15.9,0.2L53.4,30.2l-7.2,7.3l0,0l-7.8,7.9l-7.9-7.7l-0.1-0.1L43,24.8L60.8,6.7c0.8-0.8,1.7-1.6,2.7-2.3
	c8.7-6.4,21-5.8,29,2l27.7,27.2L123.4,36.8z"/>
<polygon class="st1" points="153.3,66.4 153.3,66.4 133.2,46.5 125.4,54.4 138.2,67 120.8,84.7 128.7,92.5 153.9,67 "/>
</svg>
